<?xml version="1.0" encoding="UTF-8"?>
<svg xmlns="http://www.w3.org/2000/svg" xmlns:xlink="http://www.w3.org/1999/xlink" fill="none" height="540" viewBox="0 0 1080 540" width="1080">
  <clipPath id="a">
    <path d="m0 0h1080v540h-1080z"></path>
  </clipPath>
  <g clip-path="url(#a)">
    <path d="m270 0h270v270h-270z" fill="#aecacd"></path>
    <path d="m540 0h540v540h-540z" fill="#000"></path>
    <path d="m0 0h270v540h-270z" fill="#fff"></path>
    <path d="m270 270h270v270h-270z" fill="#fe4a19"></path>
    <g fill="#000">
      <path d="m326.42 185.2h28.5v28.58h-28.5z"></path>
      <path d="m360.33 56.22h89.33v28.58h-89.33z"></path>
      <path d="m455.07 185.2h28.5v28.58h-28.5z"></path>
      <path d="m360.33 185.2h89.33v28.58h-89.33z"></path>
      <path d="m455.07 90.22h28.5v89.56h-28.5z"></path>
      <path d="m455.07 56.22h28.5v28.58h-28.5z"></path>
      <path d="m326.42 56.22h28.5v28.58h-28.5z"></path>
      <path d="m326.42 90.22h28.5v89.56h-28.5z"></path>
      <path d="m326.42 90.22h28.5v89.56h-28.5z"></path>
      <path d="m307.55 285h-16.91c-3.115 0-5.64 2.525-5.64 5.64v16.96c0 3.115 2.525 5.64 5.64 5.64h16.91c3.115 0 5.64-2.525 5.64-5.64v-16.96c0-3.115-2.525-5.64-5.64-5.64z"></path>
      <path d="m349.83 285h-16.91c-3.115 0-5.64 2.525-5.64 5.64v16.96c0 3.115 2.525 5.64 5.64 5.64h16.91c3.115 0 5.64-2.525 5.64-5.64v-16.96c0-3.115-2.525-5.64-5.64-5.64z"></path>
      <path d="m392.12 285h-16.91c-3.115 0-5.64 2.525-5.64 5.64v16.96c0 3.115 2.525 5.64 5.64 5.64h16.91c3.115 0 5.64-2.525 5.64-5.64v-16.96c0-3.115-2.525-5.64-5.64-5.64z"></path>
      <path d="m434.4 285h-16.91c-3.115 0-5.64 2.525-5.64 5.64v16.96c0 3.115 2.525 5.64 5.64 5.64h16.91c3.115 0 5.64-2.525 5.64-5.64v-16.96c0-3.115-2.525-5.64-5.64-5.64z"></path>
      <path d="m476.69 285h-16.91c-3.115 0-5.64 2.525-5.64 5.64v16.96c0 3.115 2.525 5.64 5.64 5.64h16.91c3.115 0 5.64-2.525 5.64-5.64v-16.96c0-3.115-2.525-5.64-5.64-5.64z"></path>
      <path d="m307.55 327.35h-16.91c-3.115 0-5.64 2.525-5.64 5.64v16.96c0 3.115 2.525 5.64 5.64 5.64h16.91c3.115 0 5.64-2.525 5.64-5.64v-16.96c0-3.115-2.525-5.64-5.64-5.64z"></path>
      <path d="m349.83 327.35h-16.91c-3.115 0-5.64 2.525-5.64 5.64v16.96c0 3.115 2.525 5.64 5.64 5.64h16.91c3.115 0 5.64-2.525 5.64-5.64v-16.96c0-3.115-2.525-5.64-5.64-5.64z"></path>
      <path d="m392.12 327.35h-16.91c-3.115 0-5.64 2.525-5.64 5.64v16.96c0 3.115 2.525 5.64 5.64 5.64h16.91c3.115 0 5.64-2.525 5.64-5.64v-16.96c0-3.115-2.525-5.64-5.64-5.64z"></path>
      <path d="m434.4 327.35h-16.91c-3.115 0-5.64 2.525-5.64 5.64v16.96c0 3.115 2.525 5.64 5.64 5.64h16.91c3.115 0 5.64-2.525 5.64-5.64v-16.96c0-3.115-2.525-5.64-5.64-5.64z"></path>
      <path d="m476.69 327.35h-16.91c-3.115 0-5.64 2.525-5.64 5.64v16.96c0 3.115 2.525 5.64 5.64 5.64h16.91c3.115 0 5.64-2.525 5.64-5.64v-16.96c0-3.115-2.525-5.64-5.64-5.64z"></path>
      <path d="m307.55 369.71h-16.91c-3.115 0-5.64 2.525-5.64 5.64v16.96c0 3.115 2.525 5.64 5.64 5.64h16.91c3.115 0 5.64-2.525 5.64-5.64v-16.96c0-3.115-2.525-5.64-5.64-5.64z"></path>
      <path d="m307.55 412.06h-16.91c-3.115 0-5.64 2.525-5.64 5.64v16.96c0 3.115 2.525 5.64 5.64 5.64h16.91c3.115 0 5.64-2.525 5.64-5.64v-16.96c0-3.115-2.525-5.64-5.64-5.64z"></path>
      <path d="m349.83 369.71h-16.91c-3.115 0-5.64 2.525-5.64 5.64v16.96c0 3.115 2.525 5.64 5.64 5.64h16.91c3.115 0 5.64-2.525 5.64-5.64v-16.96c0-3.115-2.525-5.64-5.64-5.64z"></path>
      <path d="m349.83 412.06h-16.91c-3.115 0-5.64 2.525-5.64 5.64v16.96c0 3.115 2.525 5.64 5.64 5.64h16.91c3.115 0 5.64-2.525 5.64-5.64v-16.96c0-3.115-2.525-5.64-5.64-5.64z"></path>
      <path d="m392.12 369.71h-16.91c-3.115 0-5.64 2.525-5.64 5.64v16.96c0 3.115 2.525 5.64 5.64 5.64h16.91c3.115 0 5.64-2.525 5.64-5.64v-16.96c0-3.115-2.525-5.64-5.64-5.64z"></path>
      <path d="m392.12 412.06h-16.91c-3.115 0-5.64 2.525-5.64 5.64v16.96c0 3.115 2.525 5.64 5.64 5.64h16.91c3.115 0 5.64-2.525 5.64-5.64v-16.96c0-3.115-2.525-5.64-5.64-5.64z"></path>
      <path d="m434.4 369.71h-16.91c-3.115 0-5.64 2.525-5.64 5.64v16.96c0 3.115 2.525 5.64 5.64 5.64h16.91c3.115 0 5.64-2.525 5.64-5.64v-16.96c0-3.115-2.525-5.64-5.64-5.64z"></path>
      <path d="m434.4 412.06h-16.91c-3.115 0-5.64 2.525-5.64 5.64v16.96c0 3.115 2.525 5.64 5.64 5.64h16.91c3.115 0 5.64-2.525 5.64-5.64v-16.96c0-3.115-2.525-5.64-5.64-5.64z"></path>
      <path d="m476.69 369.71h-16.91c-3.115 0-5.64 2.525-5.64 5.64v16.96c0 3.115 2.525 5.64 5.64 5.64h16.91c3.115 0 5.64-2.525 5.64-5.64v-16.96c0-3.115-2.525-5.64-5.64-5.64z"></path>
      <path d="m476.69 412.06h-16.91c-3.115 0-5.64 2.525-5.64 5.64v16.96c0 3.115 2.525 5.64 5.64 5.64h16.91c3.115 0 5.64-2.525 5.64-5.64v-16.96c0-3.115-2.525-5.64-5.64-5.64z"></path>
      <path d="m307.55 454.41h-16.91c-3.115 0-5.64 2.525-5.64 5.64v16.96c0 3.115 2.525 5.64 5.64 5.64h16.91c3.115 0 5.64-2.525 5.64-5.64v-16.96c0-3.115-2.525-5.64-5.64-5.64z"></path>
      <path d="m349.83 454.41h-16.91c-3.115 0-5.64 2.525-5.64 5.64v16.96c0 3.115 2.525 5.64 5.64 5.64h16.91c3.115 0 5.64-2.525 5.64-5.64v-16.96c0-3.115-2.525-5.64-5.64-5.64z"></path>
      <path d="m392.12 454.41h-16.91c-3.115 0-5.64 2.525-5.64 5.64v16.96c0 3.115 2.525 5.64 5.64 5.64h16.91c3.115 0 5.64-2.525 5.64-5.64v-16.96c0-3.115-2.525-5.64-5.64-5.64z"></path>
      <path d="m434.4 454.41h-16.91c-3.115 0-5.64 2.525-5.64 5.64v16.96c0 3.115 2.525 5.64 5.64 5.64h16.91c3.115 0 5.64-2.525 5.64-5.64v-16.96c0-3.115-2.525-5.64-5.64-5.64z"></path>
      <path d="m476.69 454.41h-16.91c-3.115 0-5.64 2.525-5.64 5.64v16.96c0 3.115 2.525 5.64 5.64 5.64h16.91c3.115 0 5.64-2.525 5.64-5.64v-16.96c0-3.115-2.525-5.64-5.64-5.64z"></path>
      <path d="m519.36 285h-16.91c-3.115 0-5.64 2.525-5.64 5.64v16.96c0 3.115 2.525 5.64 5.64 5.64h16.91c3.115 0 5.64-2.525 5.64-5.64v-16.96c0-3.115-2.525-5.64-5.64-5.64z"></path>
      <path d="m519.36 327.35h-16.91c-3.115 0-5.64 2.525-5.64 5.64v16.96c0 3.115 2.525 5.64 5.64 5.64h16.91c3.115 0 5.64-2.525 5.64-5.64v-16.96c0-3.115-2.525-5.64-5.64-5.64z"></path>
      <path d="m519.36 369.71h-16.91c-3.115 0-5.64 2.525-5.64 5.64v16.96c0 3.115 2.525 5.64 5.64 5.64h16.91c3.115 0 5.64-2.525 5.64-5.64v-16.96c0-3.115-2.525-5.64-5.64-5.64z"></path>
      <path d="m519.36 412.06h-16.91c-3.115 0-5.64 2.525-5.64 5.64v16.96c0 3.115 2.525 5.64 5.64 5.64h16.91c3.115 0 5.64-2.525 5.64-5.64v-16.96c0-3.115-2.525-5.64-5.64-5.64z"></path>
      <path d="m519.36 454.41h-16.91c-3.115 0-5.64 2.525-5.64 5.64v16.96c0 3.115 2.525 5.64 5.64 5.64h16.91c3.115 0 5.64-2.525 5.64-5.64v-16.96c0-3.115-2.525-5.64-5.64-5.64z"></path>
      <path d="m307.55 496.76h-16.91c-3.115 0-5.64 2.525-5.64 5.64v16.96c0 3.115 2.525 5.64 5.64 5.64h16.91c3.115 0 5.64-2.525 5.64-5.64v-16.96c0-3.115-2.525-5.64-5.64-5.64z"></path>
      <path d="m349.83 496.76h-16.91c-3.115 0-5.64 2.525-5.64 5.64v16.96c0 3.115 2.525 5.64 5.64 5.64h16.91c3.115 0 5.64-2.525 5.64-5.64v-16.96c0-3.115-2.525-5.64-5.64-5.64z"></path>
      <path d="m392.12 496.76h-16.91c-3.115 0-5.64 2.525-5.64 5.64v16.96c0 3.115 2.525 5.64 5.64 5.64h16.91c3.115 0 5.64-2.525 5.64-5.64v-16.96c0-3.115-2.525-5.64-5.64-5.64z"></path>
      <path d="m434.4 496.76h-16.91c-3.115 0-5.64 2.525-5.64 5.64v16.96c0 3.115 2.525 5.64 5.64 5.64h16.91c3.115 0 5.64-2.525 5.64-5.64v-16.96c0-3.115-2.525-5.64-5.64-5.64z"></path>
      <path d="m476.69 496.76h-16.91c-3.115 0-5.64 2.525-5.64 5.64v16.96c0 3.115 2.525 5.64 5.64 5.64h16.91c3.115 0 5.64-2.525 5.64-5.64v-16.96c0-3.115-2.525-5.64-5.64-5.64z"></path>
      <path d="m519.36 496.76h-16.91c-3.115 0-5.64 2.525-5.64 5.64v16.96c0 3.115 2.525 5.64 5.64 5.64h16.91c3.115 0 5.64-2.525 5.64-5.64v-16.96c0-3.115-2.525-5.64-5.64-5.64z"></path>
      <path d="m82.49 484.03c-10.66 0-18.75-8.27-18.75-19.22 0-9.37 5.99-16.85 14.44-18.48v8.69c-3.94 1.37-6.62 5.16-6.62 9.79 0 6.16 4.67 10.85 10.92 10.85s10.92-4.69 10.92-10.85c0-4.63-2.68-8.42-6.62-9.79v-8.69c8.45 1.63 14.44 9.11 14.44 18.48 0 10.95-8.09 19.22-18.75 19.22z"></path>
      <path d="m64.37 433.23v-9.64l36.23-13.69v8.95l-6.35 2.21v14.79l6.35 2.26v8.74l-36.23-13.64zm22.37-9.48-13.39 4.74 13.39 4.74z"></path>
      <path d="m89.74 409.11v-8.37c2.36 0 4.25-2.47 4.25-5.58 0-2.79-1.47-5.11-3.52-5.11-5.67 0-3.2 18.48-15.49 18.48-6.83 0-11.24-5.74-11.24-13.06s4.73-13.27 11.03-13.27v8.37c-2.15 0-3.78 2.16-3.78 4.95 0 2.53 1.26 4.63 3.31 4.63 5.72 0 2.63-18.48 15.23-18.48 7.09 0 11.71 5.95 11.71 13.58s-5.04 13.85-11.5 13.85z"></path>
      <path d="m64.37 367.26v-9.64l36.23-13.69v8.95l-6.35 2.21v14.79l6.35 2.26v8.74l-36.23-13.64zm22.37-9.48-13.39 4.74 13.39 4.74z"></path>
      <path d="m64.37 328.99v-23.32h7.67v15.16h6.88v-13.11h7.67v13.11h14.02v8.16h-36.23z"></path>
      <path d="m82.49 303.09c-10.66 0-18.75-8.27-18.75-19.22s8.09-19.22 18.75-19.22 18.75 8.27 18.75 19.22-8.09 19.22-18.75 19.22zm0-30.07c-6.25 0-10.92 4.69-10.92 10.85s4.67 10.85 10.92 10.85 10.92-4.69 10.92-10.85-4.67-10.85-10.92-10.85z"></path>
      <path d="m64.37 251.28v-9.63l36.23-13.69v8.95l-6.35 2.21v14.8l6.35 2.26v8.74zm22.37-9.47-13.39 4.74 13.39 4.74z"></path>
      <path d="m135 484.03c-10.66 0-18.75-8.27-18.75-19.22 0-9.37 5.99-16.85 14.44-18.48v8.69c-3.94 1.37-6.62 5.16-6.62 9.79 0 6.16 4.67 10.85 10.92 10.85s10.92-4.69 10.92-10.85c0-4.63-2.68-8.42-6.62-9.79v-8.69c8.45 1.63 14.44 9.11 14.44 18.48 0 10.95-8.09 19.22-18.75 19.22z"></path>
      <path d="m135 443.23c-10.66 0-18.75-8.27-18.75-19.22s8.09-19.22 18.75-19.22 18.75 8.27 18.75 19.22-8.09 19.22-18.75 19.22zm0-30.06c-6.25 0-10.92 4.69-10.92 10.85s4.67 10.85 10.92 10.85 10.92-4.69 10.92-10.85-4.67-10.85-10.92-10.85zm-28.62 9.95v-9.64l7.77 6.84v8.06l-7.77-5.27z"></path>
      <path d="m116.88 399.64v-16.37c0-7.21 5.2-12.64 12.13-12.64 5.09 0 9.14 3 10.87 7.53l13.23-8.63v10.11l-12.39 7.63v4.21h12.39v8.16h-36.24zm7.67-8.16h9.08v-8.06c0-2.53-1.94-4.42-4.52-4.42s-4.57 1.9-4.57 4.42v8.06z"></path>
      <path d="m116.88 365.47v-14.32c0-10.58 7.77-18.53 18.12-18.53s18.12 7.95 18.12 18.53v14.32zm7.67-8.16h20.9v-5.95c0-5.95-4.52-10.37-10.45-10.37s-10.45 4.42-10.45 10.37z"></path>
      <path d="m135 329.2c-10.66 0-18.75-8.27-18.75-19.22s8.09-19.22 18.75-19.22 18.75 8.27 18.75 19.22-8.09 19.22-18.75 19.22zm0-30.06c-6.25 0-10.92 4.69-10.92 10.85s4.67 10.85 10.92 10.85 10.92-4.69 10.92-10.85-4.67-10.85-10.92-10.85z"></path>
      <path d="m116.88 285.61v-18.01c0-5.48 3.89-9.69 9.3-9.69 3.31 0 6.25 1.63 7.67 3.95 1.31-3.42 5.15-5.79 9.45-5.79 5.72 0 9.82 4.37 9.82 10.27v19.27zm7.35-7.9h6.83v-8.06c0-1.9-1.47-3.37-3.41-3.37s-3.41 1.42-3.41 3.37v8.06zm13.71 0h7.82v-9.37c0-2.21-1.68-3.9-3.89-3.9s-3.94 1.68-3.94 3.9v9.37z"></path>
      <path d="m116.88 241.91v-9.63l36.24-13.69v8.95l-6.35 2.21v14.8l6.35 2.26v8.74zm22.37-9.47-13.39 4.74 13.39 4.74z"></path>
      <path d="m148.02 204.85c-11.03 0-13.44-16.43-20.01-16.43-2.21 0-3.62 1.69-3.62 3.95s1.42 3.9 3.73 3.9v8.37c-6.83 0-11.87-5.32-11.87-12.37s4.83-12.22 11.45-12.22c9.66 0 13.23 11.11 17.75 15.37v-15.64h7.67v25.06h-5.09z"></path>
      <path d="m135 175.9c-11.08 0-18.75-5.9-18.75-14.32s7.67-14.37 18.75-14.37 18.75 5.9 18.75 14.37-7.67 14.32-18.75 14.32zm0-20.33c-6.41 0-10.92 2.42-10.92 6s4.52 5.95 10.92 5.95 10.92-2.47 10.92-5.95-4.52-6-10.92-6z"></path>
      <path d="m148.02 143.42c-11.03 0-13.44-16.43-20.01-16.43-2.21 0-3.62 1.69-3.62 3.95s1.42 3.9 3.73 3.9v8.37c-6.83 0-11.87-5.32-11.87-12.37s4.83-12.22 11.45-12.22c9.66 0 13.23 11.11 17.75 15.37v-15.64h7.67v25.06h-5.09z"></path>
      <path d="m139.83 115.36-22.95-12.64v-9l21.95 12.11v-7.58h-6.67v-7.74h6.67v-3.58h7.67v3.58h6.62v8.16h-6.62v16.69z"></path>
      <path d="m169.39 482.24v-24.11h7.67v15.95h6.51v-14.22h7.67v14.22h6.72v-16.22h7.67v24.38z"></path>
      <path d="m169.39 452.6v-14.32c0-10.58 7.77-18.53 18.12-18.53s18.12 7.95 18.12 18.53v14.32zm7.67-8.16h20.9v-5.95c0-5.95-4.52-10.37-10.45-10.37s-10.45 4.42-10.45 10.37z"></path>
      <path d="m169.39 414.54v-8.16h36.24v8.16z"></path>
      <path d="m187.51 401.22c-10.66 0-18.75-8.27-18.75-19.22 0-9.37 5.99-16.85 14.44-18.48v8.69c-3.94 1.37-6.62 5.16-6.62 9.79 0 6.16 4.67 10.85 10.92 10.85s10.92-4.69 10.92-10.85c0-4.63-2.68-8.42-6.62-9.79v-8.69c8.45 1.63 14.44 9.11 14.44 18.48 0 10.95-8.09 19.22-18.75 19.22z"></path>
      <path d="m169.39 358.63v-8.16h36.24v8.16z"></path>
      <path d="m187.51 345.31c-10.66 0-18.75-8.27-18.75-19.22s8.09-19.22 18.75-19.22 18.75 8.27 18.75 19.22-8.09 19.22-18.75 19.22zm0-30.06c-6.25 0-10.92 4.69-10.92 10.85s4.67 10.85 10.92 10.85 10.92-4.69 10.92-10.85-4.67-10.85-10.92-10.85zm-28.62 9.95v-9.64l7.77 6.84v8.06z"></path>
      <path d="m169.39 301.72v-8.21l22.16-15.11h-22.16v-8.16h36.24v8.27l-22.16 15.06h22.16v8.16h-36.24z"></path>
      <path d="m169.39 251.76v-16.8c0-7.27 5.3-12.74 12.34-12.74s12.34 5.48 12.34 12.74v8.63h11.55v8.16h-36.24zm7.67-8.16h9.35v-8.48c0-2.58-2.05-4.53-4.67-4.53s-4.67 1.95-4.67 4.53v8.48z"></path>
      <path d="m187.51 219.75c-10.66 0-18.75-8.27-18.75-19.22s8.09-19.22 18.75-19.22 18.75 8.27 18.75 19.22-8.09 19.22-18.75 19.22zm0-30.06c-6.25 0-10.92 4.69-10.92 10.85s4.67 10.85 10.92 10.85 10.92-4.69 10.92-10.85-4.67-10.85-10.92-10.85z"></path>
      <path d="m187.51 177.95c-10.66 0-18.75-8.27-18.75-19.22 0-9.37 5.99-16.85 14.44-18.48v8.69c-3.94 1.37-6.62 5.16-6.62 9.79 0 6.16 4.67 10.85 10.92 10.85s10.92-4.69 10.92-10.85c0-4.63-2.68-8.42-6.62-9.79v-8.69c8.45 1.63 14.44 9.11 14.44 18.48 0 10.95-8.09 19.22-18.75 19.22z"></path>
      <path d="m169.39 135.36v-8.16h36.24v8.16z"></path>
      <path d="m177.06 112.88v9.53h-7.67v-27.22h7.67v9.53h28.57v8.16z"></path>
      <path d="m187.51 94.41c-10.66 0-18.75-8.27-18.75-19.22s8.09-19.22 18.75-19.22 18.75 8.27 18.75 19.22-8.09 19.22-18.75 19.22zm0-30.07c-6.25 0-10.92 4.69-10.92 10.85s4.67 10.85 10.92 10.85 10.92-4.69 10.92-10.85-4.67-10.85-10.92-10.85z"></path>
    </g>
    <path d="m596.38 59.32h12.46l12.89 34.78 12.82-34.78h12.24l-19.44 49.68h-11.52l-19.44-49.68z" fill="#fff"></path>
    <path d="m650.45 59.32h11.16v49.68h-11.16z" fill="#fff"></path>
    <path d="m665.15 59.32h12.46l12.89 34.78 12.82-34.78h12.24l-19.44 49.68h-11.52l-19.44-49.68z" fill="#fff"></path>
    <path d="m719.21 59.32h11.16v49.68h-11.16z" fill="#fff"></path>
    <path d="m739.21 59.32h22.39c9.86 0 17.28 7.13 17.28 16.63 0 6.98-4.1 12.53-10.3 14.91l11.81 18.15h-13.83l-10.44-16.99h-5.76v16.99h-11.16v-49.68zm11.16 10.51v12.46h11.02c3.46 0 6.05-2.66 6.05-6.19s-2.59-6.26-6.05-6.26h-11.02z" fill="#fff"></path>
    <path d="m801.77 59.32h32.98v10.51h-21.82v8.93h19.44v10.51h-19.44v9.22h22.18v10.51h-33.34z" fill="#fff"></path>
    <path d="m842.34 59.32h11.23l20.67 30.39v-30.39h11.16v49.68h-11.3l-20.59-30.39v30.39h-11.16v-49.68z" fill="#fff"></path>
    <path d="m600.78 131.32h11.16v39.17h20.02v10.51h-31.18z" fill="#fff"></path>
    <path d="m652.62 131.32h13.18l18.72 49.68h-12.24l-3.02-8.71h-20.23l-3.1 8.71h-11.95l18.65-49.68zm12.96 30.67-6.48-18.36-6.48 18.36z" fill="#fff"></path>
    <path d="m702.51 156.16c0-14.62 11.3-25.71 26.28-25.71 12.82 0 23.04 8.21 25.27 19.8h-11.88c-1.87-5.4-7.06-9.07-13.39-9.07-8.42 0-14.83 6.41-14.83 14.98s6.41 14.98 14.83 14.98c6.34 0 11.52-3.67 13.39-9.07h11.88c-2.23 11.59-12.46 19.8-25.27 19.8-14.98 0-26.28-11.09-26.28-25.71z" fill="#fff"></path>
    <path d="m760.03 131.32h11.16v49.68h-11.16z" fill="#fff"></path>
    <path d="m779.51 161.7v-30.39h11.16v30.24c0 5.47 4.03 9.58 9.58 9.58s9.58-4.1 9.58-9.58v-30.24h11.16v30.39c0 11.52-9 20.16-20.74 20.16s-20.74-8.64-20.74-20.16z" fill="#fff"></path>
    <path d="m829.35 131.32h19.59c14.47 0 25.35 10.66 25.35 24.84s-10.87 24.84-25.35 24.84h-19.59zm11.16 10.51v28.66h8.14c8.14 0 14.18-6.19 14.18-14.33s-6.05-14.33-14.18-14.33z" fill="#fff"></path>
    <path d="m891.68 131.32h13.18l18.72 49.68h-12.24l-3.02-8.71h-20.23l-3.1 8.71h-11.95l18.65-49.68zm12.96 30.67-6.48-18.36-6.48 18.36z" fill="#fff"></path>
    <path d="m927.01 131.32h19.58c14.47 0 25.35 10.66 25.35 24.84s-10.87 24.84-25.35 24.84h-19.58zm11.16 10.51v28.66h8.14c8.14 0 14.19-6.19 14.19-14.33s-6.05-14.33-14.19-14.33z" fill="#fff"></path>
    <path d="m737.758 483 8.992-22.08h3.488l8.992 22.08h-3.232l-2.144-5.344h-10.816l-2.144 5.344zm6.368-8.064h8.64l-4.32-10.816z" fill="#fff"></path>
    <path d="m719.717 483v-22.08h9.984c3.2 0 5.664 2.336 5.664 5.536 0 2.176-1.216 4.032-2.816 4.8 2.464.64 4.16 2.976 4.16 5.792 0 3.424-2.592 5.952-6.08 5.952zm9.312-19.424h-6.464v6.72h6.464c1.792 0 3.328-1.44 3.328-3.36s-1.44-3.36-3.328-3.36zm.928 9.248h-7.392v7.52h7.392c2.144 0 3.744-1.632 3.744-3.776s-1.6-3.744-3.744-3.744z" fill="#fff"></path>
    <path d="m704.148 483.384c-6.56 0-11.552-4.928-11.552-11.424s4.992-11.424 11.552-11.424c6.592 0 11.552 4.928 11.552 11.424s-4.96 11.424-11.552 11.424zm0-2.816c4.864 0 8.544-3.712 8.544-8.608s-3.68-8.608-8.544-8.608-8.544 3.712-8.544 8.608 3.68 8.608 8.544 8.608z" fill="#fff"></path>
    <path d="m670.029 483v-22.08h8.512c6.4 0 11.2 4.736 11.2 11.04s-4.8 11.04-11.2 11.04zm8.48-19.328h-5.536v16.576h5.536c4.672 0 8.224-3.552 8.224-8.288s-3.552-8.288-8.224-8.288z" fill="#fff"></path>
    <path d="m649.748 483v-22.08h9.44c3.936 0 6.912 2.88 6.912 6.72 0 3.456-2.464 6.08-5.824 6.528l6.464 8.832h-3.648l-6.304-8.768h-4.096v8.768zm9.408-19.328h-6.464v8h6.464c2.24 0 3.936-1.696 3.936-4s-1.696-4-3.936-4z" fill="#fff"></path>
    <path d="m632.484 458.776 3.328-4.128h3.552l-3.936 4.128zm1.696 24.608c-6.56 0-11.552-4.928-11.552-11.424s4.992-11.424 11.552-11.424c6.592 0 11.552 4.928 11.552 11.424s-4.96 11.424-11.552 11.424zm0-2.816c4.864 0 8.544-3.712 8.544-8.608s-3.68-8.608-8.544-8.608-8.544 3.712-8.544 8.608 3.68 8.608 8.544 8.608z" fill="#fff"></path>
    <path d="m608.992 483.384c-6.56 0-11.552-4.928-11.552-11.424s4.992-11.424 11.552-11.424c5.376 0 9.728 3.36 10.912 8.096h-3.104c-1.088-3.136-4.128-5.28-7.808-5.28-4.864 0-8.544 3.712-8.544 8.608s3.68 8.608 8.544 8.608c3.68 0 6.72-2.144 7.808-5.28h3.104c-1.184 4.736-5.536 8.096-10.912 8.096z" fill="#fff"></path>
    <path d="m980.492 443.384c-5.024 0-8.513-4.672-8.513-11.424s3.489-11.424 8.513-11.424c4.992 0 8.479 4.672 8.479 11.424s-3.487 11.424-8.479 11.424zm0-2.816c3.2 0 5.472-3.52 5.472-8.608s-2.272-8.608-5.472-8.608c-3.232 0-5.505 3.52-5.505 8.608s2.273 8.608 5.505 8.608z" fill="#fff"></path>
    <path d="m959.929 443.384c-5.024 0-8.512-4.672-8.512-11.424s3.488-11.424 8.512-11.424c4.992 0 8.48 4.672 8.48 11.424s-3.488 11.424-8.48 11.424zm0-2.816c3.2 0 5.472-3.52 5.472-8.608s-2.272-8.608-5.472-8.608c-3.232 0-5.504 3.52-5.504 8.608s2.272 8.608 5.504 8.608z" fill="#fff"></path>
    <path d="m943.924 443v-18.72l-4.928 2.72v-2.944l5.792-3.136h2.048v22.08z" fill="#fff"></path>
    <path d="m932.142 443v-18.72l-4.928 2.72v-2.944l5.792-3.136h2.048v22.08z" fill="#fff"></path>
    <path d="m897.03 443v-22.08h8.512c6.4 0 11.2 4.736 11.2 11.04s-4.8 11.04-11.2 11.04zm8.48-19.328h-5.536v16.576h5.536c4.672 0 8.224-3.552 8.224-8.288s-3.552-8.288-8.224-8.288z" fill="#fff"></path>
    <path d="m880.123 443v-22.08h2.944v19.328h10.4v2.752z" fill="#fff"></path>
    <path d="m861.78 443v-22.08h14.144v2.752h-11.2v6.848h10.144v2.752h-10.144v6.976h11.36v2.752z" fill="#fff"></path>
    <path d="m853.655 443v-22.08h2.944v22.08z" fill="#fff"></path>
    <path d="m836.217 443v-22.08h13.664v2.752h-10.72v7.04h9.408v2.752h-9.408v9.536z" fill="#fff"></path>
    <path d="m824.498 443.384c-4.512 0-7.904-2.88-7.904-6.624h2.976c0 2.272 2.176 4 4.96 4 2.624 0 4.736-1.472 4.736-3.648 0-5.12-12.288-2.752-12.288-10.272 0-3.84 3.328-6.304 7.424-6.304 4.224 0 7.456 2.72 7.456 6.336h-2.976c0-2.112-1.952-3.712-4.544-3.712-2.368 0-4.352 1.344-4.352 3.456 0 5.088 12.288 2.528 12.288 10.176 0 4-3.456 6.592-7.776 6.592z" fill="#fff"></path>
    <path d="m797.561 443v-22.08h9.44c3.936 0 6.912 2.88 6.912 6.72 0 3.456-2.464 6.08-5.824 6.528l6.464 8.832h-3.648l-6.304-8.768h-4.096v8.768zm9.408-19.328h-6.464v8h6.464c2.24 0 3.936-1.696 3.936-4s-1.696-4-3.936-4z" fill="#fff"></path>
    <path d="m773.133 443 8.992-22.08h3.488l8.992 22.08h-3.232l-2.144-5.344h-10.816l-2.144 5.344zm6.368-8.064h8.64l-4.32-10.816z" fill="#fff"></path>
    <path d="m763.967 443.384c-4.512 0-7.904-2.88-7.904-6.624h2.976c0 2.272 2.176 4 4.96 4 2.624 0 4.736-1.472 4.736-3.648 0-5.12-12.288-2.752-12.288-10.272 0-3.84 3.328-6.304 7.424-6.304 4.224 0 7.456 2.72 7.456 6.336h-2.976c0-2.112-1.952-3.712-4.544-3.712-2.368 0-4.352 1.344-4.352 3.456 0 5.088 12.288 2.528 12.288 10.176 0 4-3.456 6.592-7.776 6.592z" fill="#fff"></path>
    <path d="m728.468 443v-2.112l12.8-17.216h-12.672v-2.752h16.672v2.112l-12.8 17.216h13.024v2.752z" fill="#fff"></path>
    <path d="m711.186 443v-22.08h14.144v2.752h-11.2v6.848h10.144v2.752h-10.144v6.976h11.36v2.752z" fill="#fff"></path>
    <path d="m694.279 443v-22.08h2.944v19.328h10.4v2.752z" fill="#fff"></path>
    <path d="m681.632 418.776 3.328-4.128h3.52l-3.904 4.128zm-5.696 24.224v-22.08h14.144v2.752h-11.2v6.848h10.144v2.752h-10.144v6.976h11.36v2.752z" fill="#fff"></path>
    <path d="m660.57 443-9.088-22.08h3.264l7.424 18.272 7.392-18.272h3.2l-9.12 22.08z" fill="#fff"></path>
    <path d="m639.213 443.224c-1.152 0-2.048-.896-2.048-2.048s.896-2.048 2.048-2.048c1.184 0 2.08.896 2.08 2.048s-.896 2.048-2.08 2.048z" fill="#fff"></path>
    <path d="m625.383 443-9.088-22.08h3.264l7.424 18.272 7.392-18.272h3.2l-9.12 22.08z" fill="#fff"></path>
    <path d="m596.352 443 8.992-22.08h3.488l8.992 22.08h-3.232l-2.144-5.344h-10.816l-2.144 5.344zm6.368-8.064h8.64l-4.32-10.816z" fill="#fff"></path>
    <path d="m901.884 395.576c-9.984 0-17.52-7.392-17.52-17.136s7.536-17.136 17.52-17.136 17.52 7.392 17.52 17.136-7.536 17.136-17.52 17.136zm0-7.152c5.616 0 9.888-4.272 9.888-9.984s-4.272-9.984-9.888-9.984-9.888 4.272-9.888 9.984 4.272 9.984 9.888 9.984z" fill="#fff"></path>
    <path d="m872.215 395v-33.12h7.44v33.12z" fill="#fff"></path>
    <path d="m837.246 395v-33.12h7.488l13.776 20.256v-20.256h7.44v33.12h-7.536l-13.728-20.256v20.256z" fill="#fff"></path>
    <path d="m817.728 395.576c-7.872 0-13.824-5.76-13.824-13.44v-20.256h7.44v20.16c0 3.648 2.688 6.384 6.384 6.384 3.648 0 6.384-2.736 6.384-6.384v-20.16h7.44v20.256c0 7.68-6 13.44-13.824 13.44z" fill="#fff"></path>
    <path d="m787.158 395.576c-6.624 0-11.616-4.848-11.616-11.616h7.632c0 2.688 1.68 4.464 4.032 4.464s4.08-1.776 4.08-4.08v-22.464h7.44v22.464c0 6.384-4.944 11.232-11.568 11.232z" fill="#fff"></path>
    <path d="m740.637 395v-33.12h21.984v7.008h-14.544v5.952h12.96v7.008h-12.96v6.144h14.784v7.008z" fill="#fff"></path>
    <path d="m705.949 395v-33.12h13.056c9.648 0 16.896 7.104 16.896 16.56s-7.248 16.56-16.896 16.56zm12.864-26.112h-5.424v19.104h5.424c5.424 0 9.456-4.128 9.456-9.552s-4.032-9.552-9.456-9.552z" fill="#fff"></path>
    <path d="m667.158 395v-4.656c0-10.08 14.976-12.288 14.976-18.288 0-2.016-1.536-3.312-3.6-3.312s-3.552 1.296-3.552 3.408h-7.632c0-6.24 4.848-10.848 11.28-10.848 6.288 0 11.136 4.416 11.136 10.464 0 8.832-10.128 12.096-14.016 16.224h14.256v7.008z" fill="#fff"></path>
    <path d="m632.684 395v-33.12h7.44v26.112h13.344v7.008z" fill="#fff"></path>
    <path d="m595.904 395 12.432-33.12h8.784l12.48 33.12h-8.16l-2.016-5.808h-13.488l-2.064 5.808zm12.432-12.672h8.64l-4.32-12.24z" fill="#fff"></path>
    <path d="m924.197 347.576c-9.984 0-17.52-7.392-17.52-17.136s7.536-17.136 17.52-17.136 17.52 7.392 17.52 17.136-7.536 17.136-17.52 17.136zm0-7.152c5.616 0 9.888-4.272 9.888-9.984s-4.272-9.984-9.888-9.984-9.888 4.272-9.888 9.984 4.272 9.984 9.888 9.984z" fill="#fff"></path>
    <path d="m887.946 347v-11.376l-12.576-21.744h8.496l7.92 14.064 7.872-14.064h8.352l-12.624 21.744v11.376z" fill="#fff"></path>
    <path d="m846.498 347 12.432-33.12h8.784l12.48 33.12h-8.16l-2.016-5.808h-13.488l-2.064 5.808zm12.432-12.672h8.64l-4.32-12.24z" fill="#fff"></path>
    <path d="m806.449 347v-33.12h9.216l9.312 17.088 9.36-17.088h9.12v33.12h-7.44v-22.08l-8.976 16.512h-4.224l-8.928-16.512v22.08z" fill="#fff"></path>
    <path d="m768.855 347v-33.12h21.984v7.008h-14.544v5.952h12.96v7.008h-12.96v6.144h14.784v7.008z" fill="#fff"></path>
    <path d="m734.168 347v-33.12h13.056c9.648 0 16.896 7.104 16.896 16.56s-7.248 16.56-16.896 16.56zm12.864-26.112h-5.424v19.104h5.424c5.424 0 9.456-4.128 9.456-9.552s-4.032-9.552-9.456-9.552z" fill="#fff"></path>
    <path d="m706.8 347.576c-6.72 0-11.904-4.608-11.904-10.656h7.632c0 2.016 1.92 3.504 4.224 3.504 2.16 0 4.224-1.392 4.224-3.648 0-2.16-1.872-3.888-4.704-3.888h-4.032v-6h4.032c2.352 0 4.128-1.344 4.128-3.312 0-2.016-1.776-3.12-3.6-3.12-2.016 0-3.696 1.248-3.696 3.024h-7.632c0-5.76 4.896-10.176 11.328-10.176 6.192 0 11.232 4.08 11.232 9.36 0 2.976-1.632 5.568-4.176 7.104 2.88 1.632 4.752 4.656 4.752 7.92 0 5.568-5.328 9.888-11.808 9.888z" fill="#fff"></path>
    <path d="m660.902 347v-33.12h7.44v26.112h13.344v7.008z" fill="#fff"></path>
    <path d="m633.855 347v-33.12h21.984v7.008h-14.544v5.952h12.96v7.008h-12.96v6.144h14.784v7.008z" fill="#fff"></path>
    <path d="m599.168 347v-33.12h13.056c9.648 0 16.896 7.104 16.896 16.56s-7.248 16.56-16.896 16.56zm12.864-26.112h-5.424v19.104h5.424c5.424 0 9.456-4.128 9.456-9.552s-4.032-9.552-9.456-9.552z" fill="#fff"></path>
  </g>
</svg>
